<?xml version="1.0" standalone="no"?>
<!DOCTYPE svg PUBLIC "-//W3C//DTD SVG 20010904//EN"
 "http://www.w3.org/TR/2001/REC-SVG-20010904/DTD/svg10.dtd">
<svg version="1.0" xmlns="http://www.w3.org/2000/svg"
 width="1080.000000pt" height="1080.000000pt" viewBox="0 0 1080.000000 1080.000000"
 preserveAspectRatio="xMidYMid meet">

<g transform="translate(0.000000,1080.000000) scale(0.100000,-0.100000)"
fill="#000000" stroke="none">
<path d="M5247 10709 c-26 -9 -66 -34 -89 -55 -23 -21 -968 -964 -2100 -2096
-1468 -1468 -2062 -2069 -2073 -2095 -20 -46 -36 -219 -24 -251 5 -13 10 -445
10 -960 1 -515 5 -1340 8 -1834 l6 -896 30 -44 c76 -107 184 -137 288 -78 35
20 119 97 247 227 253 260 1204 1222 1898 1922 304 306 561 568 570 582 9 14
263 272 565 573 301 301 555 558 563 572 9 13 42 38 73 56 77 44 136 44 206
-2 28 -18 208 -189 400 -380 884 -875 1072 -1060 1099 -1082 16 -12 351 -340
743 -728 393 -388 739 -727 770 -755 30 -27 210 -203 399 -390 562 -556 618
-608 666 -622 70 -19 156 -6 202 31 78 63 70 -134 76 2021 4 1537 8 1929 18
1928 6 -2 12 6 12 18 0 11 -5 17 -10 14 -6 -4 -17 9 -25 27 -18 43 -694 718
-2350 2346 -258 255 -804 792 -1213 1195 -500 493 -755 737 -780 748 -60 25
-130 29 -185 8z"/>
<path d="M931 6244 c0 -11 3 -14 6 -6 3 7 2 16 -1 19 -3 4 -6 -2 -5 -13z"/>
<path d="M5270 5754 c-66 -22 -120 -71 -545 -501 -2469 -2498 -2700 -2732
-3138 -3173 -227 -228 -438 -436 -469 -462 -30 -26 -71 -73 -89 -105 l-34 -58
0 -625 0 -625 33 -47 c53 -78 83 -93 177 -92 53 0 90 6 110 17 17 8 98 85 180
170 83 85 404 412 715 726 1176 1188 2805 2837 2923 2960 52 54 149 111 187
111 12 0 47 -12 78 -26 48 -22 111 -80 387 -353 820 -812 1833 -1807 1856
-1824 9 -7 178 -172 376 -367 198 -195 539 -530 757 -745 219 -214 460 -452
537 -527 138 -136 139 -137 195 -144 90 -11 159 0 197 32 66 55 62 10 65 676
3 723 9 675 -104 794 -42 43 -95 102 -119 129 -78 89 -258 267 -1285 1275
-216 212 -553 543 -748 735 -195 193 -362 355 -371 362 -9 7 -360 350 -781
764 -961 945 -906 892 -960 912 -44 16 -99 21 -130 11z"/>
</g>
</svg>
